<svg version="1.1" id="Layer_1" xmlns="http://www.w3.org/2000/svg" xmlns:xlink="http://www.w3.org/1999/xlink" x="0px" y="0px"
	 width="100%" viewBox="0 0 900 600" enable-background="new 0 0 900 600" xml:space="preserve">
<path fill="#32AFEA" opacity="1.000000" stroke="none" 
	d="
M548.000000,601.000000 
	C365.363678,601.000000 183.227341,601.000000 1.045506,601.000000 
	C1.045506,401.063660 1.045506,201.127289 1.045506,1.095466 
	C300.886353,1.095466 600.772766,1.095466 900.829590,1.095466 
	C900.829590,200.999878 900.829590,400.999939 900.829590,601.000000 
	C783.460510,601.000000 665.980286,601.000000 548.000000,601.000000 
M428.692230,584.867310 
	C434.490570,580.295593 427.390656,580.702881 426.238190,578.585876 
	C427.325439,578.364929 428.354462,578.155762 429.383484,577.946594 
	C429.297363,577.387024 429.211273,576.827454 429.125153,576.267944 
	C427.331299,576.587646 425.537415,576.907410 423.743530,577.227112 
	C424.500458,578.822266 425.257385,580.417358 425.395355,582.098816 
	C424.988861,582.934143 424.582367,583.769531 424.175873,584.604858 
	C424.725739,584.674438 425.275604,584.744019 425.825500,584.813599 
	C425.879211,583.870972 425.932953,582.928345 426.612091,582.189148 
	C427.059937,583.114868 427.507782,584.040588 427.807129,585.040588 
	C427.807129,585.040588 427.813080,585.263245 427.813080,585.263245 
	C427.813080,585.263245 428.021606,585.029236 428.692230,584.867310 
M388.309082,324.376068 
	C383.736603,323.403229 382.137573,319.921875 381.922943,315.912140 
	C381.513947,308.270691 381.473328,300.607147 381.386108,292.951599 
	C381.307007,286.008026 381.369385,279.062897 381.369385,271.892975 
	C374.640411,271.892975 368.545502,271.892975 361.986206,271.892975 
	C361.986206,275.115051 362.037140,278.081757 361.977142,281.046204 
	C361.754974,292.022797 361.895691,303.027527 361.106293,313.964355 
	C360.607117,320.879669 357.604553,323.780823 350.851501,323.928986 
	C331.884857,324.345062 312.892273,324.636749 293.936768,324.073456 
	C283.862976,323.774109 278.959229,317.149780 279.271088,306.986450 
	C279.327057,305.162018 279.579926,303.341583 279.784698,301.524109 
	C280.699524,293.405304 285.009308,288.818115 292.521606,287.942810 
	C302.779785,286.747559 309.382233,290.316986 312.245728,298.342194 
	C315.429504,307.265045 313.331146,315.215942 307.505554,323.000275 
	C314.169495,323.000275 320.154999,323.169708 326.117065,322.871704 
	C327.474518,322.803894 329.399475,321.407166 329.965912,320.133911 
	C336.612823,305.192505 331.679626,286.199402 319.097534,277.529816 
	C305.149536,267.919067 281.795319,269.107758 270.707001,280.107483 
	C258.633148,292.084839 257.723907,306.459595 262.341248,321.757599 
	C263.446747,325.420319 265.617462,328.761536 267.437195,332.539001 
	C266.590332,332.412689 266.233917,332.463043 266.033875,332.309540 
	C265.514740,331.911285 264.776398,331.501068 264.630219,330.959442 
	C262.706482,323.831360 257.162048,324.307526 251.642532,324.660675 
	C250.646820,324.724365 249.643311,324.680573 248.643692,324.666382 
	C240.545776,324.551636 238.349091,322.360168 238.343155,314.184204 
	C238.321671,284.522949 238.331848,254.861710 238.330078,225.200470 
	C238.329956,223.129761 238.330078,221.059036 238.330078,219.022095 
	C231.443710,219.022095 225.522522,219.022095 219.086624,219.022095 
	C219.086624,221.319122 219.086639,223.283539 219.086639,225.247955 
	C219.086609,265.240662 219.089005,305.233337 219.080002,345.226044 
	C219.079514,347.390869 219.154602,349.575928 218.901489,351.716919 
	C217.941666,359.835693 214.164093,364.680969 206.131134,365.187164 
	C195.735580,365.842224 185.234818,365.293762 174.811310,364.701172 
	C172.309860,364.558990 168.935883,362.806427 167.681396,360.747559 
	C163.249039,353.473328 163.198578,345.407410 166.663712,337.789581 
	C169.457977,331.646606 175.616898,330.963898 181.603821,330.849640 
	C186.544342,330.755341 191.488098,330.830353 196.508484,330.830353 
	C196.508484,324.568451 196.508484,319.045990 196.508484,313.793823 
	C188.258972,313.793823 180.466705,313.676392 172.679520,313.824707 
	C163.746887,313.994843 157.415436,318.790680 152.394455,325.745087 
	C145.351074,335.500702 144.487366,346.452148 146.757965,357.727997 
	C149.882645,373.245117 159.321945,382.020752 175.026993,383.242523 
	C186.123779,384.105835 197.359634,384.215576 208.473251,383.591248 
	C226.104660,382.600708 236.673584,371.476166 237.968521,353.805756 
	C238.279572,349.561279 238.587250,345.316559 238.828857,341.999939 
	C251.760635,341.999939 264.052856,342.055939 276.343201,341.928467 
	C277.863525,341.912720 279.405060,340.391388 280.882782,340.478912 
	C285.496460,340.752228 290.079895,341.882172 294.682770,341.929291 
	C312.510986,342.111847 330.344025,341.852661 348.171387,342.073090 
	C355.999756,342.169891 363.460175,341.697296 369.297394,335.907135 
	C375.533630,340.028809 381.965729,341.943542 389.879333,341.925537 
	C394.718109,340.949768 399.541382,339.884003 404.403778,339.045074 
	C406.205811,338.734222 408.331207,338.385468 409.914337,339.027496 
	C420.341644,343.256378 430.652191,342.818024 441.108337,339.170349 
	C442.899017,338.545624 445.296814,338.520386 447.064850,339.169556 
	C454.602448,341.937164 462.221802,342.840637 470.107605,341.252258 
	C477.898346,339.683075 483.400543,339.741669 491.407745,341.342468 
	C493.353210,341.731415 495.364227,341.968628 497.345825,341.973450 
	C516.170410,342.019318 534.995422,342.048676 553.819824,341.972717 
	C560.306030,341.946503 566.234924,340.045319 571.435181,336.004669 
	C585.641418,324.966461 588.187378,297.834320 576.281860,283.417786 
	C567.159790,272.371887 554.797241,270.070435 541.514343,271.312012 
	C514.063049,273.877930 505.988739,298.305725 513.316467,318.240936 
	C513.909424,319.853943 515.787109,322.034424 517.191833,322.130096 
	C523.422180,322.554321 529.697815,322.313873 536.647400,322.313873 
	C535.211060,320.457672 534.264038,319.338318 533.430298,318.140076 
	C526.045288,307.525940 530.618835,290.930664 541.847473,288.409973 
	C548.555908,286.903961 555.424683,287.130035 560.185242,293.070160 
	C566.084839,300.431335 565.895752,308.773285 562.428894,317.109467 
	C559.542175,324.050629 553.224854,324.571625 546.911560,324.601959 
	C532.421692,324.671570 517.931274,324.628204 503.441040,324.623047 
	C493.493469,324.619537 491.190033,322.539856 490.969147,312.332245 
	C490.709778,300.343689 490.825439,288.347107 490.755798,276.354187 
	C490.745575,274.592682 490.610199,272.831909 490.530640,271.023926 
	C483.819275,271.023926 477.598877,271.023926 471.082428,271.023926 
	C471.082428,284.235962 471.132507,297.051178 471.045013,309.865479 
	C471.024719,312.838623 471.195465,316.097809 470.059204,318.691223 
	C469.099884,320.880768 466.632477,323.269958 464.380707,323.867249 
	C458.277496,325.486053 454.224640,321.796021 454.076691,314.582001 
	C453.817139,301.926331 453.959137,289.262634 453.905426,276.602386 
	C453.898010,274.851471 453.733643,273.101196 453.648376,271.473145 
	C446.935394,271.473145 440.862823,271.473145 434.234741,271.473145 
	C434.234741,283.645477 434.292419,295.436523 434.197662,307.226318 
	C434.171051,310.532196 433.847565,313.855682 433.389313,317.133209 
	C432.774170,321.532990 430.657776,324.642914 425.670929,324.589752 
	C420.864868,324.538513 418.309937,321.885803 417.803558,317.275635 
	C417.332886,312.990509 416.866028,308.682068 416.811371,304.378662 
	C416.672455,293.439758 416.765198,282.497925 416.765198,271.449951 
	C410.071136,271.449951 404.032623,271.449951 397.665588,271.449951 
	C397.556274,273.765717 397.399719,275.731720 397.381073,277.699005 
	C397.266602,289.776642 397.358887,301.859406 397.022705,313.930481 
	C396.826202,320.985382 395.088867,322.899109 388.309082,324.376068 
M781.022339,392.642181 
	C788.274048,388.293182 796.165771,384.733948 802.670166,379.462799 
	C836.636475,351.936890 848.451721,308.082947 833.842712,265.868805 
	C816.093201,214.579727 758.352112,188.310562 709.321716,209.218201 
	C666.593262,227.438553 642.912964,273.788910 652.032776,321.351837 
	C663.497986,381.146362 724.191467,415.013245 781.022339,392.642181 
M430.505615,568.000000 
	C447.501465,568.000061 464.498230,567.910583 481.492218,568.087585 
	C484.347595,568.117310 487.325897,568.959656 490.009735,570.025208 
	C494.574402,571.837524 499.756378,570.867554 502.716217,567.130615 
	C505.566772,563.531677 505.493896,557.529724 502.558289,554.119629 
	C499.140350,550.149292 493.794434,548.859009 489.605743,551.932922 
	C487.325806,553.606140 486.238159,556.873047 484.518951,559.356140 
	C483.792145,560.405945 482.823914,561.288513 481.965393,562.247070 
	C481.325134,561.090515 480.519958,559.989075 480.108459,558.756165 
	C479.873413,558.052002 480.593170,557.014160 480.334259,556.336060 
	C479.732819,554.760498 478.798492,553.312012 477.999054,551.812073 
	C477.006073,553.100708 475.701019,554.259216 475.095917,555.709717 
	C474.262939,557.706360 473.959137,559.923828 473.428650,562.046692 
	C472.422028,560.573608 472.804047,559.267700 472.531952,558.116394 
	C472.136475,556.443115 471.269287,554.881287 470.603271,553.271973 
	C469.413391,554.743103 468.037292,556.106323 467.100403,557.723877 
	C466.495667,558.767944 466.534760,560.184814 466.268616,561.518127 
	C464.764130,559.028687 463.620422,557.136230 462.476685,555.243774 
	C461.252716,557.088074 460.134308,559.016968 458.756195,560.737854 
	C458.150116,561.494690 457.015320,561.828125 456.120575,562.353821 
	C455.682678,561.267029 455.316833,560.143677 454.788757,559.102661 
	C454.121826,557.787842 453.322723,556.540100 452.580627,555.263428 
	C451.452850,556.244751 449.474091,557.124451 449.342743,558.224731 
	C448.733154,563.331116 445.689209,562.711792 442.253357,562.102112 
	C443.038910,553.195740 439.738403,548.167175 433.285645,548.012512 
	C426.217621,547.843201 423.109467,552.078674 423.206177,561.747864 
	C418.310303,562.522461 418.127441,562.455627 418.028870,558.190125 
	C417.917206,553.360413 418.170563,548.513184 417.838379,543.703064 
	C417.735413,542.212036 416.239716,540.817139 415.381683,539.378235 
	C414.521454,540.898499 413.025543,542.374207 412.915527,543.946960 
	C412.523712,549.547485 413.046692,555.244812 412.252960,560.765930 
	C411.991699,562.583191 408.982849,564.620178 406.837952,565.278870 
	C405.843872,565.584106 402.762451,562.881165 402.696289,561.446533 
	C402.615997,559.707153 404.648712,557.812927 405.906342,556.087036 
	C406.924286,554.690002 408.148346,553.443176 409.281036,552.129761 
	C407.212158,551.762756 404.852264,550.573975 403.129456,551.184082 
	C398.121826,552.957642 395.805847,559.032898 397.626617,564.089722 
	C399.518280,569.343384 405.458466,572.848755 410.432190,570.422424 
	C416.710785,567.359497 423.094208,568.252502 430.505615,568.000000 
M316.051697,251.620728 
	C313.028748,245.666504 308.701538,243.712830 303.667877,246.029572 
	C298.676605,248.326797 296.306396,253.966995 298.212982,259.010010 
	C299.943604,263.587494 304.872559,266.196350 309.506653,264.987640 
	C314.632416,263.650696 317.233673,258.812439 316.051697,251.620728 
M360.172516,247.632339 
	C359.384430,248.695602 358.431671,249.674545 357.836761,250.836685 
	C355.216278,255.955475 357.630035,262.415710 362.891418,264.599945 
	C367.984406,266.714264 373.839417,263.786377 375.435822,258.110779 
	C376.608856,253.940323 375.620453,250.052231 372.288849,247.260834 
	C368.641632,244.204956 364.631653,244.584717 360.172516,247.632339 
M278.537903,261.927246 
	C281.708282,265.545074 285.613647,266.251465 289.762787,264.159973 
	C294.149872,261.948547 295.603668,257.941559 294.906708,253.257950 
	C294.288208,249.101791 291.858582,245.661682 287.649872,245.616318 
	C284.550873,245.582901 280.681122,246.924149 278.486420,249.036438 
	C274.909363,252.479156 275.225189,257.117462 278.537903,261.927246 
M341.385498,264.634766 
	C348.117401,265.863708 352.922150,263.169678 353.991730,257.566437 
	C355.123260,251.638580 351.990631,246.433151 346.629791,245.333389 
	C341.710480,244.324203 336.330750,248.079636 335.353271,253.500778 
	C334.491669,258.279358 336.467926,261.880768 341.385498,264.634766 
M441.154053,585.333191 
	C443.033752,585.067993 444.913452,584.802734 447.710907,584.408081 
	C446.857300,581.594421 446.541321,578.737732 445.101410,576.660034 
	C444.486664,575.773010 441.526184,576.511780 439.631622,576.511780 
	C439.635406,577.056824 439.639221,577.601929 439.643005,578.146973 
	C440.732025,578.286621 441.821045,578.426270 443.415192,578.630676 
	C440.849213,580.413940 438.798859,581.838806 436.428955,583.485779 
	C436.136871,579.804016 435.880310,576.570312 435.623779,573.336548 
	C434.841583,573.375793 434.059418,573.415100 433.277222,573.454346 
	C433.277222,576.841003 432.624969,580.436096 433.607178,583.508789 
	C433.985382,584.692017 438.081268,584.686951 441.154053,585.333191 
M451.635803,576.208679 
	C448.022095,579.767029 448.119537,583.914856 451.788300,585.228027 
	C453.660919,585.898315 455.438904,586.832886 457.243622,587.640930 
	C459.743591,579.853577 458.502960,576.680298 451.635803,576.208679 
M494.069611,580.193237 
	C494.977875,577.613220 495.792847,577.577576 496.420197,580.305115 
	C496.775757,581.851135 497.033081,583.419739 497.334686,584.978210 
	C497.614990,584.900635 497.895294,584.822998 498.175568,584.745361 
	C498.900177,582.684143 499.624786,580.622864 500.349396,578.561584 
	C500.708496,578.659180 501.067566,578.756836 501.426666,578.854431 
	C501.862732,580.904968 502.298767,582.955505 502.734833,585.006042 
	C503.384796,584.919617 504.034729,584.833191 504.684692,584.746765 
	C504.476196,582.330322 504.835083,578.082458 503.961761,577.811829 
	C500.013214,576.588562 495.716248,576.489868 490.861328,575.903564 
	C491.133545,579.790222 491.312073,582.339661 491.490631,584.889099 
	C492.006958,584.905396 492.523285,584.921692 493.039612,584.937988 
	C493.364349,583.574585 493.689087,582.211243 494.069611,580.193237 
M405.423157,576.566101 
	C402.739105,576.566101 400.055084,576.566101 396.826843,576.566101 
	C397.142578,579.752258 397.378815,582.136169 397.615082,584.520081 
	C398.086761,584.535034 398.558441,584.549988 399.030121,584.565002 
	C399.682251,582.533447 400.334381,580.501892 400.986511,578.470276 
	C401.309448,578.523010 401.632416,578.575684 401.955383,578.628357 
	C402.394745,580.738586 402.834106,582.848816 403.573700,586.400879 
	C404.837799,582.837036 405.596710,580.697388 406.355652,578.557800 
	C406.715027,578.659729 407.074402,578.761597 407.433777,578.863525 
	C407.864929,580.907898 408.296051,582.952332 408.915009,585.887268 
	C412.320984,579.500671 411.212921,576.706909 405.423157,576.566101 
M486.016571,576.088623 
	C482.846558,575.659424 480.465027,577.030212 480.429535,580.134644 
	C480.410828,581.773804 482.092102,584.378418 483.537567,584.824646 
	C485.010590,585.279358 487.941223,584.129883 488.796936,582.775208 
	C490.281067,580.425720 489.915833,577.624878 486.016571,576.088623 
M421.427582,580.469421 
	C421.399689,576.988098 419.309540,575.367859 416.282166,576.258057 
	C414.645844,576.739258 412.533203,578.945740 412.460602,580.461243 
	C412.387634,581.984497 414.291016,584.502319 415.842072,585.007690 
	C418.673279,585.930298 421.008301,584.477051 421.427582,580.469421 
M477.386536,584.222412 
	C477.731201,583.714050 478.075836,583.205750 478.420471,582.697388 
	C476.902863,582.697388 475.385254,582.697388 473.447418,582.697388 
	C470.604736,576.836182 475.908783,578.972473 479.073456,578.737671 
	C476.613190,575.645874 473.974762,575.149536 471.888489,577.139893 
	C470.704102,578.269836 469.987091,581.834229 470.771729,582.644714 
	C472.069397,583.985046 474.750977,583.985535 477.386536,584.222412 
M430.670288,539.600037 
	C429.198395,540.237732 427.540161,540.655151 426.367767,541.646973 
	C426.014709,541.945618 426.683380,544.325439 427.483582,544.868774 
	C428.285126,545.413025 430.734619,545.169067 430.891998,544.720154 
	C431.392151,543.293701 431.160492,541.610596 430.670288,539.600037 
M462.938049,575.609192 
	C462.576202,574.674133 462.214355,573.739075 461.852478,572.804077 
	C461.461151,572.865112 461.069794,572.926208 460.678467,572.987305 
	C460.678467,576.923828 460.678467,580.860352 460.678467,584.796875 
	C461.205383,584.845215 461.732300,584.893494 462.259216,584.941833 
	C462.475952,582.071655 462.692719,579.201538 462.938049,575.609192 
M435.302399,544.949829 
	C436.721344,544.634888 438.370911,544.638733 439.451813,543.856567 
	C439.919617,543.518066 439.618408,541.177612 438.926788,540.442383 
	C438.245972,539.718689 436.628937,539.875732 435.422699,539.646301 
	C435.195557,541.259644 434.968414,542.873047 435.302399,544.949829 
M445.204437,549.411011 
	C446.243774,552.276123 448.254486,552.771179 450.395905,550.951660 
	C451.029053,550.413696 450.976318,547.824402 450.302856,547.224121 
	C448.224304,545.371582 446.163086,545.589661 445.204437,549.411011 
M455.546997,552.244263 
	C456.553650,550.745667 457.560303,549.247131 458.566956,547.748535 
	C457.157471,547.385986 455.748016,547.023376 454.338531,546.660767 
	C454.528168,548.455017 454.717773,550.249329 455.546997,552.244263 
z"/>
<path fill="#FEFFFF" opacity="1.000000" stroke="none" 
	d="
M780.666504,392.786438 
	C724.191467,415.013245 663.497986,381.146362 652.032776,321.351837 
	C642.912964,273.788910 666.593262,227.438553 709.321716,209.218201 
	C758.352112,188.310562 816.093201,214.579727 833.842712,265.868805 
	C848.451721,308.082947 836.636475,351.936890 802.670166,379.462799 
	C796.165771,384.733948 788.274048,388.293182 780.666504,392.786438 
M753.666077,251.742966 
	C747.054871,251.864059 740.301453,251.155441 733.858887,252.260193 
	C713.674805,255.721313 696.890808,271.966217 693.116211,290.767731 
	C688.984192,311.350098 697.274658,330.654541 715.294617,342.410339 
	C739.704773,358.334900 774.837891,351.278442 790.042725,327.397186 
	C809.511230,296.819336 791.466003,258.457977 753.666077,251.742966 
z"/>
<path fill="#FDFEFF" opacity="1.000000" stroke="none" 
	d="
M388.997131,341.785675 
	C381.965729,341.943542 375.533630,340.028809 369.297394,335.907135 
	C363.460175,341.697296 355.999756,342.169891 348.171387,342.073090 
	C330.344025,341.852661 312.510986,342.111847 294.682770,341.929291 
	C290.079895,341.882172 285.496460,340.752228 280.882782,340.478912 
	C279.405060,340.391388 277.863525,341.912720 276.343201,341.928467 
	C264.052856,342.055939 251.760635,341.999939 238.828857,341.999939 
	C238.587250,345.316559 238.279572,349.561279 237.968521,353.805756 
	C236.673584,371.476166 226.104660,382.600708 208.473251,383.591248 
	C197.359634,384.215576 186.123779,384.105835 175.026993,383.242523 
	C159.321945,382.020752 149.882645,373.245117 146.757965,357.727997 
	C144.487366,346.452148 145.351074,335.500702 152.394455,325.745087 
	C157.415436,318.790680 163.746887,313.994843 172.679520,313.824707 
	C180.466705,313.676392 188.258972,313.793823 196.508484,313.793823 
	C196.508484,319.045990 196.508484,324.568451 196.508484,330.830353 
	C191.488098,330.830353 186.544342,330.755341 181.603821,330.849640 
	C175.616898,330.963898 169.457977,331.646606 166.663712,337.789581 
	C163.198578,345.407410 163.249039,353.473328 167.681396,360.747559 
	C168.935883,362.806427 172.309860,364.558990 174.811310,364.701172 
	C185.234818,365.293762 195.735580,365.842224 206.131134,365.187164 
	C214.164093,364.680969 217.941666,359.835693 218.901489,351.716919 
	C219.154602,349.575928 219.079514,347.390869 219.080002,345.226044 
	C219.089005,305.233337 219.086609,265.240662 219.086639,225.247955 
	C219.086639,223.283539 219.086624,221.319122 219.086624,219.022095 
	C225.522522,219.022095 231.443710,219.022095 238.330078,219.022095 
	C238.330078,221.059036 238.329956,223.129761 238.330078,225.200470 
	C238.331848,254.861710 238.321671,284.522949 238.343155,314.184204 
	C238.349091,322.360168 240.545776,324.551636 248.643692,324.666382 
	C249.643311,324.680573 250.646820,324.724365 251.642532,324.660675 
	C257.162048,324.307526 262.706482,323.831360 264.630219,330.959442 
	C264.776398,331.501068 265.514740,331.911285 266.033875,332.309540 
	C266.233917,332.463043 266.590332,332.412689 267.437195,332.539001 
	C265.617462,328.761536 263.446747,325.420319 262.341248,321.757599 
	C257.723907,306.459595 258.633148,292.084839 270.707001,280.107483 
	C281.795319,269.107758 305.149536,267.919067 319.097534,277.529816 
	C331.679626,286.199402 336.612823,305.192505 329.965912,320.133911 
	C329.399475,321.407166 327.474518,322.803894 326.117065,322.871704 
	C320.154999,323.169708 314.169495,323.000275 307.505554,323.000275 
	C313.331146,315.215942 315.429504,307.265045 312.245728,298.342194 
	C309.382233,290.316986 302.779785,286.747559 292.521606,287.942810 
	C285.009308,288.818115 280.699524,293.405304 279.784698,301.524109 
	C279.579926,303.341583 279.327057,305.162018 279.271088,306.986450 
	C278.959229,317.149780 283.862976,323.774109 293.936768,324.073456 
	C312.892273,324.636749 331.884857,324.345062 350.851501,323.928986 
	C357.604553,323.780823 360.607117,320.879669 361.106293,313.964355 
	C361.895691,303.027527 361.754974,292.022797 361.977142,281.046204 
	C362.037140,278.081757 361.986206,275.115051 361.986206,271.892975 
	C368.545502,271.892975 374.640411,271.892975 381.369385,271.892975 
	C381.369385,279.062897 381.307007,286.008026 381.386108,292.951599 
	C381.473328,300.607147 381.513947,308.270691 381.922943,315.912140 
	C382.137573,319.921875 383.736603,323.403229 388.644958,325.001892 
	C388.986237,331.013672 388.991669,336.399689 388.997131,341.785675 
M274.016235,338.360840 
	C274.177765,338.465454 274.339264,338.570068 274.500763,338.674713 
	C274.349640,338.441742 274.198517,338.208801 273.925079,337.572357 
	C273.548157,337.416595 273.171265,337.260803 272.794342,337.105011 
	C272.722687,337.389893 272.651031,337.674744 272.579346,337.959625 
	C273.032806,337.994995 273.486237,338.030365 274.016235,338.360840 
M270.085968,334.419647 
	C269.744659,334.528320 269.403320,334.637024 269.061981,334.745697 
	C269.243835,335.071167 269.425659,335.396606 269.607513,335.722076 
	C269.926147,335.503784 270.244781,335.285492 270.085968,334.419647 
M276.499420,338.528229 
	C276.499420,338.528229 276.484161,338.487000 276.499420,338.528229 
z"/>
<path fill="#FCFEFF" opacity="1.000000" stroke="none" 
	d="
M389.438232,341.855591 
	C388.991669,336.399689 388.986237,331.013672 388.972473,325.214478 
	C395.088867,322.899109 396.826202,320.985382 397.022705,313.930481 
	C397.358887,301.859406 397.266602,289.776642 397.381073,277.699005 
	C397.399719,275.731720 397.556274,273.765717 397.665588,271.449951 
	C404.032623,271.449951 410.071136,271.449951 416.765198,271.449951 
	C416.765198,282.497925 416.672455,293.439758 416.811371,304.378662 
	C416.866028,308.682068 417.332886,312.990509 417.803558,317.275635 
	C418.309937,321.885803 420.864868,324.538513 425.670929,324.589752 
	C430.657776,324.642914 432.774170,321.532990 433.389313,317.133209 
	C433.847565,313.855682 434.171051,310.532196 434.197662,307.226318 
	C434.292419,295.436523 434.234741,283.645477 434.234741,271.473145 
	C440.862823,271.473145 446.935394,271.473145 453.648376,271.473145 
	C453.733643,273.101196 453.898010,274.851471 453.905426,276.602386 
	C453.959137,289.262634 453.817139,301.926331 454.076691,314.582001 
	C454.224640,321.796021 458.277496,325.486053 464.380707,323.867249 
	C466.632477,323.269958 469.099884,320.880768 470.059204,318.691223 
	C471.195465,316.097809 471.024719,312.838623 471.045013,309.865479 
	C471.132507,297.051178 471.082428,284.235962 471.082428,271.023926 
	C477.598877,271.023926 483.819275,271.023926 490.530640,271.023926 
	C490.610199,272.831909 490.745575,274.592682 490.755798,276.354187 
	C490.825439,288.347107 490.709778,300.343689 490.969147,312.332245 
	C491.190033,322.539856 493.493469,324.619537 503.441040,324.623047 
	C517.931274,324.628204 532.421692,324.671570 546.911560,324.601959 
	C553.224854,324.571625 559.542175,324.050629 562.428894,317.109467 
	C565.895752,308.773285 566.084839,300.431335 560.185242,293.070160 
	C555.424683,287.130035 548.555908,286.903961 541.847473,288.409973 
	C530.618835,290.930664 526.045288,307.525940 533.430298,318.140076 
	C534.264038,319.338318 535.211060,320.457672 536.647400,322.313873 
	C529.697815,322.313873 523.422180,322.554321 517.191833,322.130096 
	C515.787109,322.034424 513.909424,319.853943 513.316467,318.240936 
	C505.988739,298.305725 514.063049,273.877930 541.514343,271.312012 
	C554.797241,270.070435 567.159790,272.371887 576.281860,283.417786 
	C588.187378,297.834320 585.641418,324.966461 571.435181,336.004669 
	C566.234924,340.045319 560.306030,341.946503 553.819824,341.972717 
	C534.995422,342.048676 516.170410,342.019318 497.345825,341.973450 
	C495.364227,341.968628 493.353210,341.731415 491.407745,341.342468 
	C483.400543,339.741669 477.898346,339.683075 470.107605,341.252258 
	C462.221802,342.840637 454.602448,341.937164 447.064850,339.169556 
	C445.296814,338.520386 442.899017,338.545624 441.108337,339.170349 
	C430.652191,342.818024 420.341644,343.256378 409.914337,339.027496 
	C408.331207,338.385468 406.205811,338.734222 404.403778,339.045074 
	C399.541382,339.884003 394.718109,340.949768 389.438232,341.855591 
z"/>
<path fill="#66B7DE" opacity="1.000000" stroke="none" 
	d="
M430.007294,568.000000 
	C423.094208,568.252502 416.710785,567.359497 410.432190,570.422424 
	C405.458466,572.848755 399.518280,569.343384 397.626617,564.089722 
	C395.805847,559.032898 398.121826,552.957642 403.129456,551.184082 
	C404.852264,550.573975 407.212158,551.762756 409.281006,552.129761 
	C408.148346,553.443176 406.924286,554.690002 405.906342,556.087036 
	C404.648712,557.812927 402.615997,559.707153 402.696289,561.446533 
	C402.762451,562.881165 405.843872,565.584106 406.837952,565.278870 
	C408.982849,564.620178 411.991699,562.583191 412.252960,560.765930 
	C413.046692,555.244812 412.523712,549.547485 412.915527,543.946960 
	C413.025543,542.374207 414.521454,540.898499 415.381683,539.378235 
	C416.239716,540.817139 417.735413,542.212036 417.838379,543.703064 
	C418.170563,548.513184 417.917206,553.360413 418.028870,558.190125 
	C418.127441,562.455627 418.310303,562.522461 423.206177,561.747864 
	C423.109467,552.078674 426.217621,547.843201 433.285645,548.012512 
	C439.738403,548.167175 443.038910,553.195740 442.253357,562.102112 
	C445.689209,562.711792 448.733154,563.331116 449.342743,558.224731 
	C449.474091,557.124451 451.452850,556.244751 452.580627,555.263428 
	C453.322723,556.540100 454.121826,557.787842 454.788757,559.102661 
	C455.316833,560.143677 455.682678,561.267029 456.120575,562.353821 
	C457.015320,561.828125 458.150116,561.494690 458.756195,560.737854 
	C460.134308,559.016968 461.252716,557.088074 462.476685,555.243774 
	C463.620422,557.136230 464.764130,559.028687 466.268616,561.518127 
	C466.534760,560.184814 466.495667,558.767944 467.100403,557.723877 
	C468.037292,556.106323 469.413391,554.743103 470.603271,553.271973 
	C471.269287,554.881287 472.136475,556.443115 472.531952,558.116394 
	C472.804047,559.267700 472.422028,560.573608 473.428650,562.046692 
	C473.959137,559.923828 474.262939,557.706360 475.095917,555.709717 
	C475.701019,554.259216 477.006073,553.100708 477.999084,551.812073 
	C478.798492,553.312012 479.732819,554.760498 480.334259,556.336060 
	C480.593170,557.014160 479.873413,558.052002 480.108459,558.756165 
	C480.519958,559.989075 481.325134,561.090515 481.965393,562.247070 
	C482.823914,561.288513 483.792145,560.405945 484.518951,559.356140 
	C486.238159,556.873047 487.325806,553.606140 489.605743,551.932922 
	C493.794434,548.859009 499.140350,550.149292 502.558289,554.119629 
	C505.493896,557.529724 505.566772,563.531677 502.716217,567.130615 
	C499.756378,570.867554 494.574402,571.837524 490.009735,570.025208 
	C487.325897,568.959656 484.347595,568.117310 481.492218,568.087585 
	C464.498230,567.910583 447.501465,568.000061 430.007294,568.000000 
M491.080780,557.616089 
	C491.111877,559.582336 490.650787,561.757385 491.362610,563.434753 
	C491.775696,564.408203 494.196167,565.226135 495.497528,564.978760 
	C498.073944,564.488953 500.139557,562.911560 498.987396,559.705322 
	C497.628510,555.923767 495.087341,555.137268 491.080780,557.616089 
M431.149719,561.460938 
	C432.976837,560.821350 435.054688,560.510193 436.517334,559.393311 
	C437.174713,558.891357 437.077484,556.520691 436.493988,555.449280 
	C435.084595,552.861511 432.652954,552.288574 430.262482,554.095764 
	C427.233154,556.385864 428.251617,558.838928 431.149719,561.460938 
z"/>
<path fill="#FAFDFE" opacity="1.000000" stroke="none" 
	d="
M316.174103,251.989670 
	C317.233673,258.812439 314.632416,263.650696 309.506653,264.987640 
	C304.872559,266.196350 299.943604,263.587494 298.212982,259.010010 
	C296.306396,253.966995 298.676605,248.326797 303.667877,246.029572 
	C308.701538,243.712830 313.028748,245.666504 316.174103,251.989670 
z"/>
<path fill="#FAFDFE" opacity="1.000000" stroke="none" 
	d="
M360.464966,247.385010 
	C364.631653,244.584717 368.641632,244.204956 372.288849,247.260834 
	C375.620453,250.052231 376.608856,253.940323 375.435822,258.110779 
	C373.839417,263.786377 367.984406,266.714264 362.891418,264.599945 
	C357.630035,262.415710 355.216278,255.955475 357.836761,250.836685 
	C358.431671,249.674545 359.384430,248.695602 360.464966,247.385010 
z"/>
<path fill="#FBFDFE" opacity="1.000000" stroke="none" 
	d="
M278.279968,261.637939 
	C275.225189,257.117462 274.909363,252.479156 278.486420,249.036438 
	C280.681122,246.924149 284.550873,245.582901 287.649872,245.616318 
	C291.858582,245.661682 294.288208,249.101791 294.906708,253.257950 
	C295.603668,257.941559 294.149872,261.948547 289.762787,264.159973 
	C285.613647,266.251465 281.708282,265.545074 278.279968,261.637939 
z"/>
<path fill="#FBFDFE" opacity="1.000000" stroke="none" 
	d="
M341.034729,264.446960 
	C336.467926,261.880768 334.491669,258.279358 335.353271,253.500778 
	C336.330750,248.079636 341.710480,244.324203 346.629791,245.333389 
	C351.990631,246.433151 355.123260,251.638580 353.991730,257.566437 
	C352.922150,263.169678 348.117401,265.863708 341.034729,264.446960 
z"/>
<path fill="#66B7DE" opacity="1.000000" stroke="none" 
	d="
M440.818665,585.278198 
	C438.081268,584.686951 433.985382,584.692017 433.607178,583.508789 
	C432.624969,580.436096 433.277222,576.841003 433.277222,573.454346 
	C434.059418,573.415100 434.841583,573.375793 435.623779,573.336548 
	C435.880310,576.570312 436.136871,579.804016 436.428955,583.485779 
	C438.798859,581.838806 440.849213,580.413940 443.415192,578.630676 
	C441.821045,578.426270 440.732025,578.286621 439.643005,578.146973 
	C439.639221,577.601929 439.635406,577.056824 439.631622,576.511780 
	C441.526184,576.511780 444.486664,575.773010 445.101410,576.660034 
	C446.541321,578.737732 446.857300,581.594421 447.710907,584.408081 
	C444.913452,584.802734 443.033752,585.067993 440.818665,585.278198 
z"/>
<path fill="#66B7DE" opacity="1.000000" stroke="none" 
	d="
M452.005859,576.153687 
	C458.502960,576.680298 459.743591,579.853577 457.243622,587.640930 
	C455.438904,586.832886 453.660919,585.898315 451.788300,585.228027 
	C448.119537,583.914856 448.022095,579.767029 452.005859,576.153687 
z"/>
<path fill="#66B7DE" opacity="1.000000" stroke="none" 
	d="
M494.041687,580.520569 
	C493.689087,582.211243 493.364349,583.574585 493.039612,584.937988 
	C492.523285,584.921692 492.006958,584.905396 491.490631,584.889099 
	C491.312073,582.339661 491.133545,579.790222 490.861328,575.903564 
	C495.716248,576.489868 500.013214,576.588562 503.961761,577.811829 
	C504.835083,578.082458 504.476196,582.330322 504.684692,584.746765 
	C504.034729,584.833191 503.384796,584.919617 502.734833,585.006042 
	C502.298767,582.955505 501.862732,580.904968 501.426666,578.854431 
	C501.067566,578.756836 500.708496,578.659180 500.349396,578.561584 
	C499.624786,580.622864 498.900177,582.684143 498.175568,584.745361 
	C497.895294,584.822998 497.614990,584.900635 497.334686,584.978210 
	C497.033081,583.419739 496.775757,581.851135 496.420197,580.305115 
	C495.792847,577.577576 494.977875,577.613220 494.041687,580.520569 
z"/>
<path fill="#66B7DE" opacity="1.000000" stroke="none" 
	d="
M405.788574,576.486084 
	C411.212921,576.706909 412.320984,579.500671 408.915009,585.887268 
	C408.296051,582.952332 407.864929,580.907898 407.433777,578.863525 
	C407.074402,578.761597 406.715027,578.659729 406.355652,578.557800 
	C405.596710,580.697388 404.837799,582.837036 403.573700,586.400879 
	C402.834106,582.848816 402.394745,580.738586 401.955383,578.628357 
	C401.632416,578.575684 401.309448,578.523010 400.986511,578.470276 
	C400.334381,580.501892 399.682251,582.533447 399.030121,584.565002 
	C398.558441,584.549988 398.086761,584.535034 397.615082,584.520081 
	C397.378815,582.136169 397.142578,579.752258 396.826843,576.566101 
	C400.055084,576.566101 402.739105,576.566101 405.788574,576.486084 
z"/>
<path fill="#66B7DE" opacity="1.000000" stroke="none" 
	d="
M486.379700,576.150146 
	C489.915833,577.624878 490.281067,580.425720 488.796936,582.775208 
	C487.941223,584.129883 485.010590,585.279358 483.537567,584.824646 
	C482.092102,584.378418 480.410828,581.773804 480.429535,580.134644 
	C480.465027,577.030212 482.846558,575.659424 486.379700,576.150146 
z"/>
<path fill="#66B7DE" opacity="1.000000" stroke="none" 
	d="
M421.438751,580.787720 
	C421.008301,584.477051 418.673279,585.930298 415.842072,585.007690 
	C414.291016,584.502319 412.387634,581.984497 412.460602,580.461243 
	C412.533203,578.945740 414.645844,576.739258 416.282166,576.258057 
	C419.309540,575.367859 421.399689,576.988098 421.438751,580.787720 
z"/>
<path fill="#66B7DE" opacity="1.000000" stroke="none" 
	d="
M477.117981,584.386536 
	C474.750977,583.985535 472.069397,583.985046 470.771729,582.644714 
	C469.987091,581.834229 470.704102,578.269836 471.888489,577.139893 
	C473.974762,575.149536 476.613190,575.645874 479.073456,578.737671 
	C475.908783,578.972473 470.604736,576.836182 473.447418,582.697388 
	C475.385254,582.697388 476.902863,582.697388 478.420471,582.697388 
	C478.075836,583.205750 477.731201,583.714050 477.117981,584.386536 
z"/>
<path fill="#66B7DE" opacity="1.000000" stroke="none" 
	d="
M427.955597,584.966309 
	C427.507782,584.040588 427.059937,583.114868 426.306030,582.094543 
	C425.999969,581.999939 426.014282,582.012512 426.014282,582.012512 
	C425.257385,580.417358 424.500458,578.822266 423.743530,577.227112 
	C425.537415,576.907410 427.331299,576.587646 429.125153,576.267944 
	C429.211273,576.827454 429.297363,577.387024 429.383484,577.946594 
	C428.354462,578.155762 427.325439,578.364929 426.238190,578.585876 
	C427.390656,580.702881 434.490570,580.295593 428.341553,584.931458 
	C427.990845,584.995605 427.955597,584.966309 427.955597,584.966309 
z"/>
<path fill="#66B7DE" opacity="1.000000" stroke="none" 
	d="
M430.940979,539.813354 
	C431.160492,541.610596 431.392151,543.293701 430.891998,544.720154 
	C430.734619,545.169067 428.285126,545.413025 427.483582,544.868774 
	C426.683380,544.325439 426.014709,541.945618 426.367767,541.646973 
	C427.540161,540.655151 429.198395,540.237732 430.940979,539.813354 
z"/>
<path fill="#66B7DE" opacity="1.000000" stroke="none" 
	d="
M462.923767,575.970337 
	C462.692719,579.201538 462.475952,582.071655 462.259216,584.941833 
	C461.732300,584.893494 461.205383,584.845215 460.678467,584.796875 
	C460.678467,580.860352 460.678467,576.923828 460.678467,572.987305 
	C461.069794,572.926208 461.461151,572.865112 461.852478,572.804077 
	C462.214355,573.739075 462.576202,574.674133 462.923767,575.970337 
z"/>
<path fill="#66B7DE" opacity="1.000000" stroke="none" 
	d="
M435.021851,544.718140 
	C434.968414,542.873047 435.195557,541.259644 435.422699,539.646301 
	C436.628937,539.875732 438.245972,539.718689 438.926788,540.442383 
	C439.618408,541.177612 439.919617,543.518066 439.451813,543.856567 
	C438.370911,544.638733 436.721344,544.634888 435.021851,544.718140 
z"/>
<path fill="#66B7DE" opacity="1.000000" stroke="none" 
	d="
M445.199524,549.041626 
	C446.163086,545.589661 448.224304,545.371582 450.302856,547.224121 
	C450.976318,547.824402 451.029053,550.413696 450.395905,550.951660 
	C448.254486,552.771179 446.243774,552.276123 445.199524,549.041626 
z"/>
<path fill="#66B7DE" opacity="1.000000" stroke="none" 
	d="
M455.227203,552.143921 
	C454.717773,550.249329 454.528168,548.455017 454.338531,546.660767 
	C455.748016,547.023376 457.157471,547.385986 458.566956,547.748535 
	C457.560303,549.247131 456.553650,550.745667 455.227203,552.143921 
z"/>
<path fill="#66B7DE" opacity="1.000000" stroke="none" 
	d="
M425.993317,581.992798 
	C425.932953,582.928345 425.879211,583.870972 425.825500,584.813599 
	C425.275604,584.744019 424.725739,584.674438 424.175873,584.604858 
	C424.582367,583.769531 424.988861,582.934143 425.704834,582.055664 
	C426.014282,582.012512 425.999969,581.999939 425.993317,581.992798 
z"/>
<path fill="#66B7DE" opacity="1.000000" stroke="none" 
	d="
M428.006226,585.012451 
	C428.021606,585.029236 427.813080,585.263245 427.813080,585.263245 
	C427.813080,585.263245 427.807129,585.040588 427.881348,585.003418 
	C427.955597,584.966309 427.990845,584.995605 428.006226,585.012451 
z"/>
<path fill="#33AFEA" opacity="1.000000" stroke="none" 
	d="
M754.095581,251.817627 
	C791.466003,258.457977 809.511230,296.819336 790.042725,327.397186 
	C774.837891,351.278442 739.704773,358.334900 715.294617,342.410339 
	C697.274658,330.654541 688.984192,311.350098 693.116211,290.767731 
	C696.890808,271.966217 713.674805,255.721313 733.858887,252.260193 
	C740.301453,251.155441 747.054871,251.864059 754.095581,251.817627 
z"/>
<path fill="#FCFEFF" opacity="1.000000" stroke="none" 
	d="
M273.939697,338.065735 
	C273.486237,338.030365 273.032806,337.994995 272.579346,337.959625 
	C272.651031,337.674744 272.722687,337.389893 272.794342,337.105011 
	C273.171265,337.260803 273.548157,337.416595 273.958252,337.795288 
	C273.991394,338.018250 273.939697,338.065735 273.939697,338.065735 
z"/>
<path fill="#FCFEFF" opacity="1.000000" stroke="none" 
	d="
M274.019409,337.997040 
	C274.198517,338.208801 274.349640,338.441742 274.500763,338.674713 
	C274.339264,338.570068 274.177765,338.465454 273.977966,338.213287 
	C273.939697,338.065735 273.991394,338.018250 274.019409,337.997040 
z"/>
<path fill="#32AFEA" opacity="1.000000" stroke="none" 
	d="
M270.324707,334.743439 
	C270.244781,335.285492 269.926147,335.503784 269.607513,335.722076 
	C269.425659,335.396606 269.243835,335.071167 269.061981,334.745728 
	C269.403320,334.637024 269.744659,334.528320 270.324707,334.743439 
z"/>
<path fill="#FCFEFF" opacity="1.000000" stroke="none" 
	d="
M276.491791,338.507629 
	C276.484161,338.487000 276.499420,338.528229 276.491791,338.507629 
z"/>
<path fill="#32AFEA" opacity="1.000000" stroke="none" 
	d="
M491.354126,557.344177 
	C495.087341,555.137268 497.628510,555.923767 498.987396,559.705322 
	C500.139557,562.911560 498.073944,564.488953 495.497528,564.978760 
	C494.196167,565.226135 491.775696,564.408203 491.362610,563.434753 
	C490.650787,561.757385 491.111877,559.582336 491.354126,557.344177 
z"/>
<path fill="#32AFEA" opacity="1.000000" stroke="none" 
	d="
M430.827271,561.283325 
	C428.251617,558.838928 427.233154,556.385864 430.262482,554.095764 
	C432.652954,552.288574 435.084595,552.861511 436.493988,555.449280 
	C437.077484,556.520691 437.174713,558.891357 436.517334,559.393311 
	C435.054688,560.510193 432.976837,560.821350 430.827271,561.283325 
z"/>
</svg>